<svg width="55" height="58" viewBox="0 0 55 58" fill="none" xmlns="http://www.w3.org/2000/svg">
<path d="M16.704 44.8V11.52H25.088V45.12C25.088 52.736 19.712 57.92 12.672 57.92C4.032 57.92 0 52.864 0 44.736H7.808C7.808 48.32 8.96 50.56 12.224 50.56C15.552 50.56 16.704 48.384 16.704 44.8ZM25.088 7.744H16.704V0H25.088V7.744Z" fill="black"/>
<path d="M47.06 30.464V22.272H54.804V31.232C54.804 37.888 50.964 43.84 42.068 43.84C32.852 43.84 29.204 37.952 29.204 31.168V3.008H37.396V11.52H54.804V17.408H37.396V30.336C37.396 34.304 38.804 36.608 42.196 36.608C45.524 36.608 47.06 34.368 47.06 30.464Z" fill="black"/>
</svg>
